<svg xmlns="http://www.w3.org/2000/svg" viewBox="0 0 312.04 91.85"><defs><style>.cls-1{fill:#000001;}.cls-1,.cls-2,.cls-3,.cls-4{fill-rule:evenodd;}.cls-2{fill:#231f20;}.cls-3,.cls-5{fill:#fff;}.cls-4{fill:#d0d2d3;}</style></defs><title>Asset 1</title><g id="Layer_2" data-name="Layer 2"><g id="Layer_1-2" data-name="Layer 1"><path class="cls-1" d="M298.72,76.45l-3.18,4.77-4.82-3.43-2.28,3.43-5.07-3.58L286.5,73l4.92,3.38L293.65,73ZM277.1,49.86l-5.31-3.78,3.33-4.87,5.26,3.68ZM243.76,81.57l-5.32-3.73L241.77,73,247,76.6Zm-18.1-12.23q-5,0-7.4-2.44t-2.44-7.7V36.44l5.72-1.54.49.3V58.75a5.76,5.76,0,0,0,.5,2.64,2.83,2.83,0,0,0,1.54,1.34,56.86,56.86,0,0,0,7.16.4h0a34.62,34.62,0,0,0,6.51-.55,49.16,49.16,0,0,0,7.08-2.09c1.09-.39,2.4-.84,3.93-1.34l-1.69-.74a42.2,42.2,0,0,0-4.8-1.89,12.27,12.27,0,0,0-3.5-.55,15.08,15.08,0,0,0-2.86.25c-.88.16-1.83.4-2.86.69l-.25-.19L235,51.2a8.68,8.68,0,0,1,2.11-.8,10.58,10.58,0,0,1,2.41-.29,10.77,10.77,0,0,1,3.08.52,37.66,37.66,0,0,1,4.58,1.86A41.07,41.07,0,0,0,253.7,55a21.91,21.91,0,0,0,5.31.77l-1,5.57a18.91,18.91,0,0,0-4.22.64,7.93,7.93,0,0,0,3.15,1c1.33.16,7.37.25,9.87.25h.89c2,0,3.3-.22,3.93-.65a39.16,39.16,0,0,0,1.69-7L279.69,54l.49.35c-.39,1.72-.77,3.21-1.14,4.45a23.55,23.55,0,0,1-1.24,3.35,15.2,15.2,0,0,0,5.62,1h1.14a11.55,11.55,0,0,0,2-.18,3.35,3.35,0,0,0,1.39-.47,38.2,38.2,0,0,0,1.74-7L296.14,54l.5.35c-.4,1.69-.78,3.16-1.15,4.4a28.12,28.12,0,0,1-1.19,3.35,20.11,20.11,0,0,0,7,1h.51c1,0,2,0,2.93-.1a7.75,7.75,0,0,0,1.88-.3,2.14,2.14,0,0,0,.05-.55,9.3,9.3,0,0,0-.77-3.28c-.52-1.29-1.22-2.85-2.12-4.67l5-4h.48a31.11,31.11,0,0,1,2,5.49,19.29,19.29,0,0,1,.76,4.69,9.64,9.64,0,0,1-.67,3.63,8.74,8.74,0,0,1-2,3,7,7,0,0,1-3.21,1.72,23.18,23.18,0,0,1-5.64.52H300a21,21,0,0,1-5.17-.6A9.79,9.79,0,0,1,291,67a9.65,9.65,0,0,1-3.16,1.74,12.7,12.7,0,0,1-4.1.6h-1.64a14.54,14.54,0,0,1-4.15-.65,11.18,11.18,0,0,1-3.6-1.74,12.24,12.24,0,0,1-7.95,2.39h-.95A78.26,78.26,0,0,1,255,68.72,10.12,10.12,0,0,1,251,66.93a10,10,0,0,1-2.51-3.06l-1.84.9a52.58,52.58,0,0,1-8.85,3.55C235.32,69,228.45,69.34,225.66,69.34ZM209.2,48.12l-5.32-3.78,3.33-4.87,5.27,3.68Zm-27.95,28.5.34-.5c2.52-.43,17.58-3.84,19.68-4.72a21.76,21.76,0,0,0,5-2.73c1.21-1,1.82-1.73,1.82-2.36a13.85,13.85,0,0,0-1.12-3.7c-.69-1.64-1.45-3.26-2.31-4.85l4.47-5h.55a27.15,27.15,0,0,1,2.46,6.16,22.9,22.9,0,0,1,.87,5.77,11.45,11.45,0,0,1-1.44,5.76A11.73,11.73,0,0,1,208.38,74a20.78,20.78,0,0,1-5,2.81c-1.9.78-16.68,4.09-18.83,4.42ZM307.57,46.43l-5.32-3.78,3.33-4.87,5.27,3.68Z"/><path class="cls-1" d="M143.83,45.56v2.79L130.75,67.18H143.3v5H122.63V69.35l13.2-18.82H123.41l.61-5ZM103,61.11h6.72L106.3,51Zm7-15.55,9.56,26.25v.33h-6.2l-2.13-6.36h-9.84l-2.09,6.36H93.21v-.33l9.56-26.25ZM79.59,72.71a11.7,11.7,0,0,1-8-2.79l2.87-3.85a8.44,8.44,0,0,0,2.19,1.31,6.34,6.34,0,0,0,2.35.41,3.87,3.87,0,0,0,3-1.11,4.44,4.44,0,0,0,1-3.11v-18h5.66V63.69A9.33,9.33,0,0,1,87.3,69.1a7.47,7.47,0,0,1-3.44,2.81A11.52,11.52,0,0,1,79.59,72.71ZM67.48,45.56V72.14H61.17L52.81,59.75c-.71-1.09-1.32-2-1.81-2.85a25.28,25.28,0,0,1-1.44-2.72v18H43.9V45.56h6.23l9.1,13.62L60,60.31c.38.59.73,1.14,1.05,1.66a12.43,12.43,0,0,1,.8,1.52V45.56ZM31,72.14V45.56h5.66V72.14ZM23.58,45.56V72.14H17.27L8.91,59.75c-.71-1.09-1.32-2-1.81-2.85a25.28,25.28,0,0,1-1.44-2.72v18H0V45.56H6.23l9.1,13.62.74,1.13c.38.59.73,1.14,1.05,1.66a12.43,12.43,0,0,1,.8,1.52V45.56Z"/><path class="cls-1" d="M196,13.52a24.75,24.75,0,0,0-10.79-10A42.05,42.05,0,0,0,160.4.79c-8.05,1.74-18.57,7.9-21.5,18.13,10.49-6.93,22.91-9.51,35.36-9.09A82.91,82.91,0,0,1,196,13.52"/><path class="cls-2" d="M160.43.78h0c-8.05,1.74-18.57,7.9-21.5,18.13a54.28,54.28,0,0,1,19.47-7.86c-.66-3.59.5-7.25,2.06-10.28"/><path class="cls-1" d="M139.42,36.52c1.34,9.19,3.44,16.53,5.2,18.6,2.55,3,11.51,9.35,31.93,7.84s27.24-13.38,25-30.93V31.9c-12.32-7.91-26.88-8.16-40.66-4.5A85.66,85.66,0,0,0,146,32.94a60.62,60.62,0,0,0-5.89,3.16Z"/><path class="cls-2" d="M201.59,32V31.9a41.87,41.87,0,0,0-11.65-5.16l1.7,17.2s9.07,1,10-11.91"/><path class="cls-2" d="M139.42,36.52c1.34,9.19,3.44,16.53,5.2,18.6,2.38,2.8,10.29,8.48,27.83,8.05-3.74-13.06,3.19-21.77,3.19-21.77l7.79-15.92a60,60,0,0,0-22.51,1.92A85.66,85.66,0,0,0,146,32.94a60.62,60.62,0,0,0-5.89,3.16Z"/><path class="cls-1" d="M124,11a9.88,9.88,0,0,0,7,7.47c6,1.69,6.06,5.28,6.06,5.28s-3.72-4.4-11-4.15c0,0,10.84,3.19,10.24,7.75,0,0-2.57.67-3,2.74,0,0-14.66-2.52-16.33-13.83Z"/><path class="cls-2" d="M130.31,21.31c2.94,1.38,6.22,3.51,5.88,6.07,0,0-2.57.67-3,2.74a28.34,28.34,0,0,1-7.55-2.68c5.44-.88,3.15-4.86,4.65-6.13M132.39,19c4.59,1.81,4.61,4.8,4.61,4.8a12.87,12.87,0,0,0-5.14-3.27A2.09,2.09,0,0,0,132.39,19Z"/><path class="cls-1" d="M130.65,31.57S124.44,39.7,114.41,33l.46,11.63s15.39,4.13,18.43-4l-.63-2.06s-2.83,3.75-8.88,3.25c0,0,6.59-1.63,7.78-4.83a11.87,11.87,0,0,1,.72-4.91c.92-1.9-1.64-.45-1.64-.45"/><path class="cls-2" d="M130.84,43.71a6.53,6.53,0,0,0,2.46-3.14l-.63-2.06A9.17,9.17,0,0,1,128,41.39a4.57,4.57,0,0,1,2.83,2.32m-.19-12.14a11.7,11.7,0,0,1-5.12,3.51,5.13,5.13,0,0,1,.81,5.84c2-.79,4.53-2.12,5.23-4a11.87,11.87,0,0,1,.72-4.91C133.21,30.12,130.65,31.57,130.65,31.57Z"/><path class="cls-1" d="M136.31,29s-8.11,7.75,3.18,13.41c0,0-2.84-11-3.18-13.41"/><path class="cls-2" d="M136.31,29s-8.11,7.75,3.18,13.41c0,0-.88-3.38-1.71-6.81l-1.08,2.62c-4.83-2-.39-9.22-.39-9.22"/><path class="cls-1" d="M158.32,24.46c12.05-3.24,36.61-6.52,40.43,10,1.67,7.24-3.21,12.81-9.66,15.32a9,9,0,0,1-4.43.53,17.72,17.72,0,0,1-5.09-1.64c-1.84-.83-4.34-2.17-6.42-1.9a19.27,19.27,0,0,0-4.08,1.33,57.94,57.94,0,0,1-5.74,2.11c-8.17,2.35-13.78-.45-17.37-8.36a7.83,7.83,0,0,1-.61-2c-1.24-7.14,6.39-14.17,13-15.46"/><path class="cls-3" d="M158.7,26.13c8.81-2.38,34.69-7.25,38.39,8.75,1.36,5.89-2.34,10.89-8.62,13.34-5.66,2.2-10.43-3.8-15.54-3.11-5.92.73-18.52,11.26-25.41-3.93-2.6-5.72,4-13.69,11.18-15"/><path class="cls-4" d="M158.7,26.13c8.81-2.38,34.69-7.25,38.39,8.75,1.3,5.65-2.05,10.48-7.87,13,22.71-22.5-23.59-25-36.95-15.51-6.22,6.5-1.59,13,2.69,16.47-2.77-.88-5.37-3.12-7.44-7.69-2.6-5.72,4-13.69,11.18-15"/><path class="cls-1" d="M154.66,33.79s11,1.09,9.18,8.8-10.44,2.27-10.44,2.27l2.85-1.16s-2.42-3.56-1.93-5,3.21,2,4.86.68-4.52-5.62-4.52-5.62"/><path class="cls-1" d="M191.35,34.12A5.1,5.1,0,0,0,186,35a7.3,7.3,0,0,1,1.37,3c0,1.22.32,2.16-1.28,1.47s-3.57,4.13,1.19,5,5.91-5,4.06-6.73a21.26,21.26,0,0,0-3.18-2.61,7.3,7.3,0,0,1,3.2-1"/><path class="cls-1" d="M201.08,16.33c2.18,4.61,3.42,9.18,2.76,14.32l-.25,1.9-1.61-1c-12.48-8.07-27.23-8.36-41.21-4.64a85.51,85.51,0,0,0-15,5.58,60.67,60.67,0,0,0-5.95,3.19l-1.6,1L138,34.77c-.5-3.87-.84-7.76-1-11.66V23c0-.37.06-.74.11-1.1l.05-.39,1.74-1.88.11-.08c10.45-7,22.85-9.57,35.27-9.16,8.45.29,18.38,2.07,26.22,5.37l.43.17Z"/><path class="cls-1" d="M138.16,23.06c.16,4,.51,7.88,1,11.55,0,0,35.44-22.25,63.49-4.12.7-5.44-.94-10-2.65-13.64-10.24-4.3-38.42-11-60.34,3.69L138.27,22c0,.35-.08.69-.11,1"/><path class="cls-2" d="M138.16,23.06c.16,4,.51,7.88,1,11.55a75.88,75.88,0,0,1,9.64-4.85,28,28,0,0,1,1.68-14.69,50.48,50.48,0,0,0-10.82,5.47L138.27,22c0,.35-.08.69-.11,1"/><path class="cls-2" d="M198.7,28.23a43.71,43.71,0,0,1,3.94,2.26c.7-5.44-.94-10-2.65-13.64a59.5,59.5,0,0,0-6.78-2.32,37.07,37.07,0,0,1,5.49,13.7"/><path class="cls-1" d="M172.58,80.08c.76,1.81.65,3.85-1.52,5-2.39,1.23-7.11,2-9.57.21l-14.3,6.57a2.68,2.68,0,0,1-2.9-1.5l-.38-.81-4,1.88L137,85.22l4-1.88-.42-.9a2.69,2.69,0,0,1,.72-3.19L145,77.44a3.72,3.72,0,0,1,0-1l-.25-1.23a10.67,10.67,0,0,1,0-3.61,6.73,6.73,0,0,1,4.34-5.45,6.26,6.26,0,0,0,2.47-2,14.37,14.37,0,0,1,2.94-3c2.33-1.55,4.94-1,7.31.08a4.9,4.9,0,0,1,1.8-.41c2.28,0,3.92,1.64,5,3.5l1,1.75,6.62-3A2.7,2.7,0,0,1,179,64.56l.42.9,4-1.88,2.87,6.16-4,1.88.38.8a2.71,2.71,0,0,1-.62,3.11Z"/><path class="cls-1" d="M142.55,80.24l33.53-15.62a1.18,1.18,0,0,1,1.57.57l3.66,7.87a1.18,1.18,0,0,1-.57,1.57L147.21,90.25a1.19,1.19,0,0,1-1.57-.58L142,81.81a1.18,1.18,0,0,1,.57-1.57"/><rect class="cls-5" x="145.52" y="78.89" width="2.29" height="11.04" transform="translate(-21.93 69.83) rotate(-24.98)"/><rect class="cls-5" x="139.62" y="84.94" width="3.9" height="3.8" transform="translate(-23.43 67.91) rotate(-24.98)"/><rect class="cls-5" x="179.81" y="66.21" width="3.9" height="3.8" transform="translate(-11.76 83.13) rotate(-24.98)"/><rect class="cls-5" x="148.27" y="77.87" width="1.14" height="11.04" transform="translate(-21.3 70.67) rotate(-24.98)"/><rect class="cls-5" x="175.6" y="64.87" width="2.29" height="11.04" transform="translate(-13.19 81.22) rotate(-24.98)"/><rect class="cls-5" x="173.99" y="65.89" width="1.14" height="11.04" transform="translate(-13.83 80.4) rotate(-24.98)"/><path class="cls-1" d="M146.27,74.9s-1.14-5.66,3.38-7.36,4.29-8.75,12.26-4.71c0,0,2.89-2.3,5.41,2.14,0,0-2.67.37-3.17,1.83,0,0-5.27-2.56-8.83,3.7a6.42,6.42,0,0,0-5,2L150,71s-1,1.86-.69,2.84a7.25,7.25,0,0,0-3,1.09"/><path class="cls-2" d="M146.27,74.9s-1.14-5.66,3.38-7.36,4.29-8.75,12.26-4.71L161.4,64c-2.2-1.47-5.73-.53-7.39.73s-1,2.41-4.87,4.23a3.9,3.9,0,0,0-2,5.45,4.22,4.22,0,0,0-.88.51"/><path class="cls-3" d="M163.54,68s-4.1-2.19-6.57,3c0,0,3.09,9.79,3.61,10.5s4.6-.94,4.29-3.79S163.54,68,163.54,68M155.82,72s-4.19-.3-5,2.67c0,0,.92,10.45,8.43,7.64C159.2,82.27,156.17,74.64,155.82,72Zm-6.07,3.25s-3.61-.29-3.23,2.23,4.48,5.54,6,5.7-.17-1.19-.76-2.12S149.52,76.9,149.75,75.21Zm15.16-7.27c.25,0,1.19-2.42,3.8-.59,0,0,.57,2.7.83,4.21s1.45,2,1.51,3.23a3.9,3.9,0,0,1-1.4,3c-.71.52-3.23.65-3.23.65Z"/><path class="cls-4" d="M158.84,76.82a38.41,38.41,0,0,0,5.62-2.24c-.4-3-.92-6.54-.92-6.54s-4.1-2.19-6.57,3c0,0,.94,3,1.87,5.76m-7.23,1.41a32,32,0,0,0,5.72-1A33.3,33.3,0,0,1,155.82,72s-4.19-.3-5,2.67A15.53,15.53,0,0,0,151.61,78.23Zm-4.85,0a29.34,29.34,0,0,0,3.66.06,7,7,0,0,1-.67-3.09s-3.61-.29-3.23,2.23A3.16,3.16,0,0,0,146.76,78.24Zm18.15-10.3c.25,0,1.19-2.42,3.8-.59,0,0,.57,2.7.83,4.21v.1q-1.92,1.26-3.78,2.25Z"/><path class="cls-3" d="M166.16,80a25.06,25.06,0,0,0,4.1-.84s2.75,3.22.12,4.56-7.27,1.7-8.53-.22c0,0-.65-1,2.24-1.3,0,0,.9,0,2.07-2.2"/></g></g></svg>