<?xml version="1.0" encoding="utf-8"?>
<!-- Generator: Adobe Illustrator 23.0.5, SVG Export Plug-In . SVG Version: 6.00 Build 0)  -->
<svg version="1.1" id="Layer_1" xmlns="http://www.w3.org/2000/svg" xmlns:xlink="http://www.w3.org/1999/xlink" x="0px" y="0px"
	 viewBox="0 0 429.6 126" style="enable-background:new 0 0 429.6 126;" xml:space="preserve">
<style type="text/css">
	.st0{fill:#FFFFFF;}
</style>
<g>
	<g id="Whites">
		<path class="st0" d="M244.4,34.3c5.6,0.9,11.2,1.4,16.7,2.6c8.1,1.9,12.9,10.6,10.6,18.6c-2.4,8.3-12.1,14.9-19.2,11.4
			c-9.5-4.7-17.8-3.4-27.1,0.3c-9.9,3.9-16.6,0.8-21.2-8.1c-3.6-6.9-0.7-14.9,6.5-17.6C221.6,37.5,232.7,34.7,244.4,34.3z
			 M213.7,63.5c2.4,1.1,6.6,3.4,10-0.3c1.8-1.9,2.7-5.9,2.1-8.5c-1.3-5.5-6.5-6.4-11.9-7.7c2.4,2.7,4.3,4.8,6.2,6.9
			c-0.3,0.4-0.5,0.8-0.8,1.1c-2.1-0.5-4.1-1-6.2-1.5C213.3,56.9,213.5,59.7,213.7,63.5z M258.4,54c-0.5-0.1-1-0.2-1.6-0.4
			c-0.8,1.9-1.6,3.9-2.4,5.8c2.5,0.7,5.2,2.3,7.4,1.8c3.4-0.7,4.2-6.3,1.7-9.1c-0.9-1-2.4-1.6-3.6-2.5c1.5-1.4,2-1.9,3.7-3.4
			c-3.2,0.9-5.1,1.4-7,2C257.3,50.6,257.8,52.3,258.4,54z"/>
		<path class="st0" d="M221.5,113.1c-1.6-4.4-3.5-8.7-4.6-13.1c-1-3.9,1.9-5.8,5.2-6.5c3.5-0.8,4,1.9,4.3,4.6c0.3,2.6,0.6,5.3,1,7.9
			C228,110.2,226.1,112.4,221.5,113.1z"/>
		<path class="st0" d="M211.1,115.2c-1.9-0.7-3.3-1.3-5.4-2.1c1.3,3,2.4,5.7,3.5,8.4c-1.5,0.8-3,1.7-5,2.9c-2.2-4.5-4.3-9-6-12.6
			c1.6-2.3,2.7-4.2,4.1-5.9c0.7-0.8,1.8-1.6,2.8-1.6c0.8,0,1.8,1.1,2.2,2C208.5,108.9,209.6,111.7,211.1,115.2z"/>
		<path class="st0" d="M219.6,113.7c-6.5,1.5-13.2-4.5-11.6-10.3c0.5-1.7,3.2-2.9,5.1-3.9c0.3-0.2,2.2,1.8,2.7,3.1
			C217.2,106.1,218.3,109.7,219.6,113.7z"/>
		<path class="st0" d="M229.3,108.1c-0.6-4.2-1.3-8.3-1.5-12.4c-0.1-1.2,1.4-2.4,2.2-3.6c1.1,0.8,2.7,1.4,3.2,2.5
			c1.1,2.5,1.9,5.2,2.5,8C236.5,106.9,234.1,108.3,229.3,108.1z"/>
		<path class="st0" d="M243,106.1c-2.2-4.7-4.2-8.9-6.3-13.5c1.6-0.9,3.1-1.7,5.1-2.9c2.2,4.6,4.3,9,6.6,13.8
			C246.7,104.4,245,105.1,243,106.1z"/>
		<path class="st0" d="M222.3,115.2c4-2.2,6.8-4,9.9-5.2c1-0.4,2.8,1.2,4.2,1.9c-0.8,1.4-1.2,3.5-2.4,4.1
			C230.6,117.7,226.9,118,222.3,115.2z"/>
		<path class="st0" d="M249.3,98c-0.8-1.8-1.5-3.1-2.3-4.8c1.6-0.8,3-1.6,4.8-2.6c0.8,1.6,1.6,3,2.5,4.8
			C252.6,96.3,251.2,97,249.3,98z"/>
		<path class="st0" d="M196.7,116.4c0.9,1.8,1.5,3.2,2.3,4.9c-1.8,0.8-3.2,1.5-4.9,2.3c-0.8-1.6-1.4-2.8-2.4-4.7
			C193.3,118.1,194.8,117.3,196.7,116.4z"/>
	</g>
	<g id="Blacks">
		<path d="M232.6,0c5.3,1,10.7,1.7,16,3c9,2.3,16.3,7.2,21.2,15.4c0.5,0.9,1.5,1.7,2.4,2.1c8.4,4,11.7,16.7,6.6,24.8
			c-0.5,0.9-0.4,2.2-0.4,3.4c0.3,24.5-7.8,34.2-32.2,38.5c1.6,2.8,1.6,2.8,6.8,0.9c1.2,2.6,2.5,5.3,3.8,8.1c-1.7,1-3.2,2-4.8,2.9
			c0,1.8,0,3.5,0,6.2c9.6-2.8,19.3-5.1,28.6-8.5c6.6-2.5,6.7-4.3,4-10.7c-3.1-7.3-3.1-7.4,3.8-12.8c10.6,14.2,5.5,29.5-11.5,33.9
			c-4.7,1.2-9.4,2.1-14,3.5c-5.7,1.7-10.9,2.3-13.3-5.3c-3.5,1.6-6.7,3-9.8,4.6c-0.6,0.3-1.2,1.1-1.4,1.8c-1.7,5.8-4.5,8.6-10.4,7.3
			c-6.1-1.3-10.6,1.1-15.4,3.5c-2.8,1.3-5.5,2.9-8.2,4.3c-1.3,0-2.7,0-4,0c-1.9-4.4-4.8-1.5-7.6-0.7c-1.3-2.9-2.6-5.5-3.8-8.2
			c0.5,0.1,0.9,0.2,1.4,0.3c1-2.2,2.1-4.4,3.1-6.6c0.4-0.7,0.7-1.9,1.2-2c5.6-1.4,4.2-5.9,4.9-9.8c0.5-2.9,2.9-5.6,5-8
			c2.2-2.5,5-4.6,6.8-6.2c-5.8-4.7-11-9-16.5-13.5c-4,5.8-8.9,12.8-14.2,20.5c6,0,11,0,16.5,0c0,2.5,0,4.5,0,6.9c-9,0-18.1,0-28.5,0
			c1-2.6,1.4-5.1,2.7-7c4.9-7.3,10-14.4,15.6-22.4c-6.1,0-11.1,0-16.4,0c0-2.3,0-4.1,0-6.4c-3.1-0.4-6.1-0.3-8.8-1.2
			c-1.4-0.4-3.2-2.3-3.3-3.6c-0.4-4-0.2-8.2-0.2-12.9c8.9,5.9,16.6,3.4,23.6-3.5c0.3,0.3,0.7,0.7,1,1c-1.1,4-2.2,8.1-3.3,12
			c0.4-0.2,1.7-0.8,3.4-1.6c2,4.8-1.7,6.3-5.3,8.7c5.7,0,10.6,0,15.9,0c-0.1-1.3-0.2-2.8-0.3-4.6c-0.8,0.3-1.5,0.8-2,0.6
			c-6.8-2-9.6-10.6-5.3-16.1c0.5-0.6,1.6-0.6,3.1-1.2c0-0.2-0.1-1.7-0.2-3.4c-3.7,1-5.5,5.4-10.4,3.1c-6.2-3.1-12.2-6-15.7-12.3
			c-2-3.6-2.2-6.5,2-8.7c2-1.1,3.8-2.6,6.2-4.3c1.7,9.9,11.6,9.5,17.6,14.6c0.9-1.1,2.3-2.1,2.7-3.3c5.7-17.3,19-24.1,35.8-26.2
			c1.1-0.1,2.1-0.5,3.2-0.8C231.3,0,231.9,0,232.6,0z M244.4,34.3c-11.7,0.4-22.8,3.2-33.7,7.2c-7.2,2.7-10.1,10.7-6.5,17.6
			c4.6,8.9,11.4,12,21.2,8.1c9.3-3.7,17.6-5,27.1-0.3c7.1,3.5,16.8-3,19.2-11.4c2.3-7.9-2.5-16.7-10.6-18.6
			C255.6,35.7,250,35.2,244.4,34.3z M221.5,113.1c4.6-0.7,6.5-2.9,5.9-7.2c-0.4-2.6-0.7-5.3-1-7.9c-0.3-2.6-0.9-5.3-4.3-4.6
			c-3.3,0.7-6.2,2.6-5.2,6.5C218.1,104.4,219.9,108.6,221.5,113.1z M211.1,115.2c-1.5-3.6-2.6-6.3-3.9-9c-0.4-0.9-1.5-2-2.2-2
			c-0.9,0-2.1,0.8-2.8,1.6c-1.4,1.7-2.5,3.6-4.1,5.9c1.8,3.7,3.9,8.1,6,12.6c2.1-1.2,3.6-2,5-2.9c-1.2-2.8-2.3-5.4-3.5-8.4
			C207.8,113.9,209.2,114.5,211.1,115.2z M219.6,113.7c-1.3-3.9-2.4-7.6-3.8-11.1c-0.5-1.3-2.4-3.2-2.7-3.1c-1.9,1-4.6,2.2-5.1,3.9
			C206.4,109.2,213,115.1,219.6,113.7z M229.3,108.1c4.8,0.1,7.2-1.2,6.3-5.5c-0.6-2.7-1.4-5.4-2.5-8c-0.5-1.1-2.1-1.7-3.2-2.5
			c-0.8,1.2-2.3,2.5-2.2,3.6C228,99.9,228.7,103.9,229.3,108.1z M243,106.1c2-0.9,3.6-1.7,5.4-2.6c-2.3-4.7-4.4-9.2-6.6-13.8
			c-2,1.1-3.5,2-5.1,2.9C238.9,97.1,240.8,101.3,243,106.1z M222.3,115.2c4.6,2.8,8.3,2.5,11.7,0.9c1.2-0.5,1.6-2.7,2.4-4.1
			c-1.4-0.7-3.1-2.3-4.2-1.9C229.1,111.2,226.3,113.1,222.3,115.2z M249.3,98c2-1,3.4-1.8,5-2.6c-0.9-1.7-1.6-3.1-2.5-4.8
			c-1.8,1-3.2,1.7-4.8,2.6C247.8,94.9,248.4,96.2,249.3,98z M196.7,116.4c-1.8,0.9-3.3,1.7-5,2.5c0.9,1.9,1.6,3.2,2.4,4.7
			c1.7-0.8,3.1-1.4,4.9-2.3C198.2,119.6,197.5,118.2,196.7,116.4z"/>
		<path d="M429.6,88c-5,8.1-14.8,10.6-25.9,6.8c-1.7-0.6-3.9,0-5.9,0c-5.5,0-11.1,0-16.6,0c-2.1,0-4.2,0-6.3,0
			c-8.7-0.1-17.4,0.2-26.1-0.4c-2.3-0.2-4.5-3.1-7.3-5.2c-9,5.2-19.4,7.3-30.4,6.9c-9.6-0.3-13.5-4.1-13.6-13.8c0-8.5,0-17,0-25.5
			c0-7.3,0-7.3,8.7-7.6c0,7.9,0,15.9,0,23.8c-0.1,15.1-0.9,14.6,14.5,14c6.8-0.3,13.4-2.4,20.1-4.5c-6-4.8-12.4-5.6-19.3-3.6
			c0.8-10.3,6.6-10.7,14.1-8.3c6.9,2.2,13.6,5,21.5,8c-0.9,2.2-2.1,5.1-3.5,8.5c5.4,0,11.9,0.2,18.4-0.2c1,0,2.8-2.1,2.8-3.3
			c0.4-6.8,4.7-8.3,11.3-8.4c-0.9,3.6-1.7,7-2.8,11.8c4.1,0,7.9,0.3,11.7-0.2c1-0.1,2.2-2.3,2.7-3.7c2.2-7.2,2.4-7.4,11.2-7.7
			c-0.9,3.4-1.8,6.7-3,11.3c5.5,0.2,10.7,0.5,16.7,0.7c-0.6-2.5-0.8-4.1-1.3-5.6c-2.7-7.5-2.7-7.5,4.8-12.1c1.3,3.2,2.6,6.3,3.8,9.3
			C429.6,82,429.6,85,429.6,88z"/>
		<path d="M0.6,63c7.1-1.2,11.2,2.2,14.4,8.2c2.6,4.9,6.2,9.4,10.3,13.9c0-7.1,0-14.3,0-21.7c2.9,0,5.2,0,7.8,0c0,12.1,0,24,0,36.2
			c-4.9,0.8-9,1-12-4.5c-3.3-6-7.6-11.5-12.3-18.4c0,8.6,0,15.6,0,23.3c-3,0-5.6,0-8.2,0C0.6,87.7,0.6,75.3,0.6,63z"/>
		<path d="M93.4,99.5c-5.6,1.5-9.5,0.3-12.5-5c-3.1-5.6-7.1-10.7-11.6-17.5c0,8.4,0,15.4,0,22.7c-3,0-5.2,0-7.9,0c0-12,0-24,0-36.1
			c5.4-1.4,9.2-0.4,12.1,4.8c3.2,5.9,7.4,11.3,11.9,18.1c0-8.4,0-15.5,0-22.9c2.8,0,5.2,0,7.9,0C93.4,75.4,93.4,87.3,93.4,99.5z"/>
		<path d="M128.8,99.4C133,88,137,76.6,141.4,65.3c0.4-1.1,2.8-2.1,4.3-2c2.4,0.1,6.3,0.4,6.8,1.8c4.6,11.3,8.6,22.9,12.9,34.5
			c-5.7,1.1-10.1,1.2-11.1-5.7c-0.1-1.1-2.4-2.3-3.9-2.6c-2.2-0.4-4.7-0.4-6.9,0c-1.4,0.3-3.6,1.5-3.8,2.6
			C138.6,100.1,134.9,101.1,128.8,99.4z M147,71.4c-1.6,4.9-2.8,8.6-4.2,12.7c3.1,0,5.5,0,8.4,0C149.8,79.8,148.6,76.2,147,71.4z"/>
		<path d="M114.8,63.3c2.9,0,5.1,0,7.6,0c0,9.9,0.6,19.7-0.2,29.3c-0.5,6.1-8.1,9.4-15.6,7.7c-2.5-0.6-4.8-1.9-7.7-3
			c1.6-2.2,2.8-3.8,4-5.5c1.2,0.5,2.3,0.9,3.3,1.3c5.5,1.9,8.5-0.1,8.5-5.8C114.8,79.4,114.8,71.6,114.8,63.3z"/>
		<path d="M43.8,63.4c2.7,0,4.8,0,7.3,0c0,12.2,0,24.2,0,36.4c-2.4,0-4.7,0-7.3,0C43.8,87.7,43.8,75.7,43.8,63.4z"/>
		<path d="M411.4,105.7c-1.6,2.3-2.9,4.4-4.4,6.6c-2.2-1.4-4.1-2.7-6.4-4.1c-1.1,1.2-2.3,2.5-3.8,4.1c-2.1-1.5-4.3-3-6.9-4.8
			c1.5-2.2,2.8-4.2,4.3-6.6c2.2,1.4,4.3,2.7,6.6,4.1c1.1-1.2,2.1-2.5,3.5-4.1C406.6,102.4,408.9,104,411.4,105.7z"/>
		<path d="M280.8,61.7c1.6-2.4,3-4.4,4.7-6.9c2.5,1.7,4.8,3.3,7.5,5.2c-1.6,2.5-3,4.6-4.6,7.1C285.7,65.2,283.4,63.5,280.8,61.7z"/>
		<path d="M378.8,57.2c2.6,1.8,4.8,3.4,7.4,5.2c-1.6,2.4-3,4.5-4.6,7c-2.5-1.8-4.8-3.3-7.6-5.3C375.7,61.8,377.2,59.6,378.8,57.2z"
			/>
		<path d="M340.6,105.9c-1.7,2.5-3.1,4.6-4.7,7c-2.6-1.8-5-3.5-7.5-5.2c1.5-2.3,2.8-4.2,4.6-6.9C335.3,102.4,337.6,104,340.6,105.9z
			"/>
		<path d="M428.2,57.6c-1.7,2.5-3,4.6-4.6,7.1c-2.6-1.9-4.9-3.5-7.5-5.4c1.6-2.4,3-4.4,4.6-6.9C423.1,54.2,425.4,55.7,428.2,57.6z"
			/>
		<path d="M213.7,63.5c-0.2-3.8-0.4-6.7-0.6-9.9c2,0.5,4.1,1,6.2,1.5c0.3-0.4,0.5-0.8,0.8-1.1c-1.9-2.1-3.8-4.2-6.2-6.9
			c5.4,1.3,10.6,2.2,11.9,7.7c0.6,2.6-0.3,6.6-2.1,8.5C220.3,66.9,216.1,64.7,213.7,63.5z"/>
		<path d="M258.4,54c-0.5-1.7-1.1-3.4-1.8-5.8c1.9-0.5,3.8-1.1,7-2c-1.7,1.5-2.2,2.1-3.7,3.4c1.2,0.8,2.6,1.4,3.6,2.5
			c2.6,2.8,1.8,8.4-1.7,9.1c-2.3,0.5-4.9-1.2-7.4-1.8c0.8-1.9,1.6-3.9,2.4-5.8C257.3,53.8,257.8,53.9,258.4,54z"/>
	</g>
</g>
</svg>
