<?xml version="1.0" encoding="utf-8"?>
<!-- Generator: Adobe Illustrator 23.0.5, SVG Export Plug-In . SVG Version: 6.00 Build 0)  -->
<svg version="1.1" id="Layer_1" xmlns="http://www.w3.org/2000/svg" xmlns:xlink="http://www.w3.org/1999/xlink" x="0px" y="0px"
	 viewBox="0 0 312 93" style="enable-background:new 0 0 312 93;" xml:space="preserve">
<style type="text/css">
	.st0{fill-rule:evenodd;clip-rule:evenodd;fill:#F98B38;}
	.st1{fill-rule:evenodd;clip-rule:evenodd;fill:#F9A267;}
	.st2{fill-rule:evenodd;clip-rule:evenodd;fill:#FFFFFF;}
	.st3{fill-rule:evenodd;clip-rule:evenodd;fill:#D0D2D3;}
	.st4{opacity:0.32;fill-rule:evenodd;clip-rule:evenodd;fill:#F9A267;}
</style>
<g>
	<path class="st0" d="M299,77.3l-3.2,4.8l-4.8-3.4l-2.3,3.4l-5.1-3.6l3.1-4.7l4.9,3.4l2.2-3.4L299,77.3z M277.4,50.7l-5.3-3.8
		l3.3-4.9l5.3,3.7L277.4,50.7z M244.1,82.4l-5.3-3.7l3.3-4.9l5.3,3.6L244.1,82.4z M226,70.1c-3.3,0-5.8-0.8-7.4-2.4
		c-1.6-1.6-2.4-4.2-2.4-7.7V37.2l5.7-1.5l0.5,0.3v23.6c0,1.1,0.2,2,0.5,2.6c0.3,0.6,0.8,1.1,1.5,1.3c0.7,0.3,5.9,0.4,7.2,0.4h0
		c2.5,0,4.6-0.2,6.5-0.5c1.9-0.4,4.2-1.1,7.1-2.1c1.1-0.4,2.4-0.8,3.9-1.3l-1.7-0.7c-2-0.9-3.6-1.5-4.8-1.9
		c-1.2-0.4-2.4-0.5-3.5-0.5c-1,0-2,0.1-2.9,0.2c-0.9,0.2-1.8,0.4-2.9,0.7l-0.2-0.2l2.2-5.5c0.6-0.3,1.3-0.6,2.1-0.8
		c0.8-0.2,1.6-0.3,2.4-0.3c0.9,0,1.9,0.2,3.1,0.5c1.2,0.3,2.7,1,4.6,1.9c2.5,1.2,4.7,2,6.5,2.5c1.8,0.5,3.6,0.7,5.3,0.8l-1,5.6
		c-1.5,0.1-2.9,0.3-4.2,0.6c0.8,0.5,1.8,0.8,3.2,0.9c1.3,0.2,7.4,0.2,9.9,0.2h0h0.8c2,0,3.3-0.2,3.9-0.6c0.5-1.3,1.1-3.6,1.7-7
		l6.4-1.5l0.5,0.3c-0.4,1.7-0.8,3.2-1.1,4.4c-0.4,1.2-0.8,2.4-1.2,3.4c1.6,0.6,3.5,0.9,5.6,0.9h0h0h1.1c0.7,0,1.4-0.1,2-0.2
		c0.7-0.1,1.1-0.3,1.4-0.5c0.6-1.5,1.2-3.8,1.7-7l6.4-1.5l0.5,0.3c-0.4,1.7-0.8,3.2-1.1,4.4c-0.4,1.2-0.8,2.4-1.2,3.4
		c1.8,0.7,4.1,1,7,1h0h0.5c1,0,2,0,2.9-0.1c0.9-0.1,1.5-0.2,1.9-0.3c0-0.1,0-0.3,0-0.5c0-0.9-0.3-2-0.8-3.3
		c-0.5-1.3-1.2-2.8-2.1-4.7l5-4h0.5c0.8,1.7,1.5,3.6,2,5.5c0.5,1.9,0.8,3.5,0.8,4.7c0,1.3-0.2,2.5-0.7,3.6c-0.4,1.1-1.1,2.2-2,3
		c-0.8,0.8-1.9,1.4-3.2,1.7c-1.3,0.3-3.2,0.5-5.6,0.5h-0.5h0c-1.9,0-3.6-0.2-5.2-0.6c-1.6-0.4-2.9-1-3.8-1.7c-0.9,0.8-2,1.3-3.2,1.7
		c-1.2,0.4-2.5,0.6-4.1,0.6h-1.6c-1.3,0-2.7-0.2-4.2-0.6c-1.4-0.4-2.6-1-3.6-1.7c-2,1.6-4.6,2.4-8,2.4h-0.9h0
		c-2.6,0-8.8-0.2-10.5-0.6c-1.6-0.4-2.9-1-3.9-1.8c-1-0.8-1.8-1.8-2.5-3.1l-1.8,0.9c-3.4,1.7-6.3,2.9-8.8,3.6
		C235.6,69.8,228.8,70.1,226,70.1z M209.5,48.9l-5.3-3.8l3.3-4.9l5.3,3.7L209.5,48.9z M181.6,77.4l0.3-0.5
		c2.5-0.4,17.6-3.8,19.7-4.7c2.1-0.9,3.8-1.8,5-2.7c1.2-0.9,1.8-1.7,1.8-2.4c-0.1-0.8-0.4-2.1-1.1-3.7c-0.7-1.6-1.4-3.3-2.3-4.8
		l4.5-5h0.5c1.1,1.9,1.9,4,2.5,6.2c0.6,2.2,0.9,4.1,0.9,5.8c0,2.2-0.5,4.1-1.4,5.8c-0.7,1.3-1.7,2.4-3.2,3.5c-1.4,1.1-3.1,2-5,2.8
		c-1.9,0.8-16.7,4.1-18.8,4.4L181.6,77.4z M307.9,47.2l-5.3-3.8l3.3-4.9l5.3,3.7L307.9,47.2z"/>
	<path class="st0" d="M144.1,46.4v2.8L131.1,68h12.5v5h-20.7v-2.8l13.2-18.8h-12.4l0.6-5H144.1z M103.3,61.9h6.7l-3.4-10.1
		L103.3,61.9z M110.3,46.4l9.6,26.2v0.3h-6.2l-2.1-6.4h-9.8l-2.1,6.4h-6.1v-0.3l9.6-26.2H110.3z M79.9,73.5c-3.2,0-5.8-0.9-8-2.8
		l2.9-3.9c0.8,0.6,1.5,1,2.2,1.3c0.7,0.3,1.5,0.4,2.4,0.4c1.3,0,2.3-0.4,3-1.1c0.7-0.7,1-1.8,1-3.1v-18H89v18.1
		c0,2.3-0.5,4.1-1.4,5.4c-0.9,1.3-2.1,2.3-3.4,2.8C82.8,73.3,81.4,73.5,79.9,73.5z M67.8,46.4v26.6h-6.3l-8.4-12.4
		c-0.7-1.1-1.3-2-1.8-2.9c-0.5-0.8-1-1.7-1.4-2.7v18h-5.7V46.4h6.2L59.5,60c0.1,0.2,0.4,0.5,0.7,1.1c0.4,0.6,0.7,1.1,1.1,1.7
		c0.3,0.5,0.6,1,0.8,1.5V46.4H67.8z M31.3,72.9V46.4h5.7v26.6H31.3z M23.9,46.4v26.6h-6.3L9.2,60.6c-0.7-1.1-1.3-2-1.8-2.9
		C6.9,56.9,6.4,56,6,55v18H0.3V46.4h6.2L15.6,60c0.1,0.2,0.4,0.5,0.7,1.1c0.4,0.6,0.7,1.1,1.1,1.7c0.3,0.5,0.6,1,0.8,1.5V46.4H23.9z
		"/>
	<path class="st0" d="M196.3,14.3c-2.9-5-6.7-7.9-10.8-10c-4.1-2-14.6-5-24.8-2.8c-8.1,1.7-18.6,7.9-21.5,18.1
		c10.5-6.9,22.9-9.5,35.4-9.1C181.5,10.9,189.4,12.1,196.3,14.3"/>
	<path class="st1" d="M160.7,1.6L160.7,1.6c-8.1,1.7-18.6,7.9-21.5,18.1c6-3.9,12.6-6.5,19.5-7.9C158,8.3,159.2,4.6,160.7,1.6"/>
	<path class="st0" d="M139.7,37.3c1.3,9.2,3.4,16.5,5.2,18.6c2.6,3,11.5,9.4,31.9,7.8c20.4-1.5,27.2-13.4,25-30.9l0-0.1
		c-12.3-7.9-26.9-8.2-40.7-4.5c-5.1,1.4-10.2,3.3-14.9,5.5c-2,0.9-4.1,2-5.9,3.2L139.7,37.3z"/>
	<path class="st1" d="M201.9,32.8l0-0.1c-3.7-2.4-7.6-4.1-11.6-5.2l1.7,17.2C191.9,44.7,201,45.7,201.9,32.8"/>
	<path class="st1" d="M139.7,37.3c1.3,9.2,3.4,16.5,5.2,18.6c2.4,2.8,10.3,8.5,27.8,8C169,50.9,176,42.2,176,42.2l7.8-15.9
		c-7.4-0.9-15.1-0.1-22.5,1.9c-5.1,1.4-10.2,3.3-14.9,5.5c-2,0.9-4.1,2-5.9,3.2L139.7,37.3z"/>
	<path class="st0" d="M124.3,11.8c0,0,1,5.8,7,7.5c6,1.7,6.1,5.3,6.1,5.3s-3.7-4.4-11-4.1c0,0,10.8,3.2,10.2,7.7c0,0-2.6,0.7-3,2.7
		c0,0-14.7-2.5-16.3-13.8L124.3,11.8z"/>
	<path class="st1" d="M130.6,22.1c2.9,1.4,6.2,3.5,5.9,6.1c0,0-2.6,0.7-3,2.7c0,0-3.7-0.6-7.5-2.7C131.4,27.4,129.1,23.4,130.6,22.1
		 M132.7,19.8c4.6,1.8,4.6,4.8,4.6,4.8s-1.7-2-5.1-3.3C132.5,20.9,132.7,20.4,132.7,19.8z"/>
	<path class="st0" d="M131,32.4c0,0-6.2,8.1-16.2,1.4l0.5,11.6c0,0,15.4,4.1,18.4-4l-0.6-2.1c0,0-2.8,3.8-8.9,3.2
		c0,0,6.6-1.6,7.8-4.8c0,0-0.2-3,0.7-4.9C133.5,30.9,131,32.4,131,32.4"/>
	<path class="st1" d="M131.1,44.5c1.1-0.8,1.9-1.8,2.5-3.1l-0.6-2.1c0,0-1.5,2-4.7,2.9C129.4,42.6,130.7,43.3,131.1,44.5 M131,32.4
		c0,0-1.8,2.4-5.1,3.5c1.3,1.6,1.9,3.5,0.8,5.8c2-0.8,4.5-2.1,5.2-4c0,0-0.2-3,0.7-4.9C133.5,30.9,131,32.4,131,32.4z"/>
	<path class="st0" d="M136.6,29.8c0,0-8.1,7.8,3.2,13.4C139.8,43.2,137,32.3,136.6,29.8"/>
	<path class="st1" d="M136.6,29.8c0,0-8.1,7.8,3.2,13.4c0,0-0.9-3.4-1.7-6.8l-1.1,2.6C132.2,37,136.6,29.8,136.6,29.8"/>
	<path class="st0" d="M158.6,25.3c12.1-3.2,36.6-6.5,40.4,10c1.7,7.2-3.2,12.8-9.7,15.3c-1.4,0.6-2.9,0.7-4.4,0.5
		c-1.8-0.2-3.5-0.9-5.1-1.6c-1.8-0.8-4.3-2.2-6.4-1.9c-1.3,0.2-2.9,0.9-4.1,1.3c-1.9,0.8-3.8,1.5-5.7,2.1
		c-8.2,2.4-13.8-0.4-17.4-8.4c-0.3-0.6-0.5-1.3-0.6-2C144.4,33.6,152,26.6,158.6,25.3"/>
	<path class="st2" d="M159,26.9c8.8-2.4,34.7-7.2,38.4,8.7c1.4,5.9-2.3,10.9-8.6,13.3c-5.7,2.2-10.4-3.8-15.5-3.1
		c-5.9,0.7-18.5,11.3-25.4-3.9C145.2,36.3,151.8,28.3,159,26.9"/>
	<path class="st3" d="M159,26.9c8.8-2.4,34.7-7.2,38.4,8.7c1.3,5.7-2,10.5-7.9,13c22.7-22.5-23.6-25-36.9-15.5
		c-6.2,6.5-1.6,13,2.7,16.5c-2.8-0.9-5.4-3.1-7.4-7.7C145.2,36.3,151.8,28.3,159,26.9"/>
	<path class="st0" d="M155,34.6c0,0,11,1.1,9.2,8.8c-1.8,7.7-10.4,2.3-10.4,2.3l2.9-1.2c0,0-2.4-3.6-1.9-5c0.5-1.4,3.2,2,4.9,0.7
		C161.1,38.9,155,34.6,155,34.6"/>
	<path class="st0" d="M191.7,34.9c0,0-2.7-1.3-5.4,0.9c0,0,1.3,1.8,1.4,3c0,1.2,0.3,2.2-1.3,1.5c-1.6-0.7-3.6,4.1,1.2,5
		c4.8,0.9,5.9-5,4.1-6.7c-1.8-1.8-3.2-2.6-3.2-2.6S189.9,35,191.7,34.9"/>
	<path class="st0" d="M201.4,17.1c2.2,4.6,3.4,9.2,2.8,14.3l-0.2,1.9l-1.6-1c-12.5-8.1-27.2-8.4-41.2-4.6c-5.2,1.4-10.2,3.3-15,5.6
		c-2,0.9-4.1,2-6,3.2l-1.6,1l-0.2-1.9c-0.5-3.9-0.8-7.8-1-11.7l0-0.1l0-0.1c0-0.4,0.1-0.7,0.1-1.1l0-0.4l1.7-1.9l0.1-0.1
		c10.4-7,22.8-9.6,35.3-9.2c8.4,0.3,18.4,2.1,26.2,5.4l0.4,0.2L201.4,17.1z"/>
	<path class="st0" d="M138.5,23.9c0.2,4,0.5,7.9,1,11.5c0,0,35.4-22.3,63.5-4.1c0.7-5.4-0.9-10-2.6-13.6c-10.2-4.3-38.4-11-60.3,3.7
		l-1.4,1.5C138.5,23.2,138.5,23.5,138.5,23.9"/>
	<path class="st1" d="M138.5,23.9c0.2,4,0.5,7.9,1,11.5c0,0,3.7-2.3,9.6-4.8c-0.9-5.8,0.2-10.8,1.7-14.7c-3.7,1.3-7.3,3.1-10.8,5.5
		l-1.4,1.5C138.5,23.2,138.5,23.5,138.5,23.9"/>
	<path class="st1" d="M199,29c1.3,0.7,2.6,1.4,3.9,2.3c0.7-5.4-0.9-10-2.6-13.6c-1.8-0.7-4.1-1.6-6.8-2.3
		C196,19.1,198.1,23.7,199,29"/>
	<path class="st0" d="M172.9,80.9c0.8,1.8,0.6,3.9-1.5,5c-2.4,1.2-7.1,2-9.6,0.2l-14.3,6.6c-1.2,0.2-2.4-0.4-2.9-1.5l-0.4-0.8
		l-4,1.9l-2.9-6.2l4-1.9l-0.4-0.9c-0.5-1.1-0.2-2.4,0.7-3.2l3.7-1.8c0-0.4,0-0.7,0-1l-0.3-1.2c-0.2-1.1-0.2-2.5,0-3.6
		c0.4-2.5,1.9-4.5,4.3-5.4c1-0.4,1.8-1.2,2.5-2c0.9-1.1,1.7-2.2,2.9-3c2.3-1.6,4.9-1,7.3,0.1c0.6-0.3,1.2-0.4,1.8-0.4
		c2.3,0,3.9,1.6,5,3.5l1,1.7l6.6-2.9c1.1-0.1,2.3,0.4,2.8,1.5l0.4,0.9l4-1.9l2.9,6.2l-4,1.9l0.4,0.8c0.5,1.1,0.2,2.3-0.6,3.1
		L172.9,80.9z"/>
	<path class="st0" d="M142.9,81l33.5-15.6c0.6-0.3,1.3,0,1.6,0.6l3.7,7.9c0.3,0.6,0,1.3-0.6,1.6l-33.5,15.6c-0.6,0.3-1.3,0-1.6-0.6
		l-3.7-7.9C142,82,142.3,81.3,142.9,81"/>
	
		<rect x="145.8" y="79.7" transform="matrix(0.9064 -0.4223 0.4223 0.9064 -22.2402 70.0386)" class="st2" width="2.3" height="11"/>
	
		<rect x="139.9" y="85.7" transform="matrix(0.9064 -0.4223 0.4223 0.9064 -23.7424 68.1143)" class="st2" width="3.9" height="3.8"/>
	<rect x="180.1" y="67" transform="matrix(0.9065 -0.4223 0.4223 0.9065 -12.0726 83.332)" class="st2" width="3.9" height="3.8"/>
	
		<rect x="148.6" y="78.7" transform="matrix(0.9064 -0.4224 0.4224 0.9064 -21.6061 70.8729)" class="st2" width="1.1" height="11"/>
	
		<rect x="175.9" y="65.7" transform="matrix(0.9065 -0.4223 0.4223 0.9065 -13.5058 81.4192)" class="st2" width="2.3" height="11"/>
	
		<rect x="174.3" y="66.7" transform="matrix(0.9064 -0.4223 0.4223 0.9064 -14.1397 80.6062)" class="st2" width="1.1" height="11"/>
	<path class="st0" d="M146.6,75.7c0,0-1.1-5.7,3.4-7.4c4.5-1.7,4.3-8.8,12.3-4.7c0,0,2.9-2.3,5.4,2.1c0,0-2.7,0.4-3.2,1.8
		c0,0-5.3-2.6-8.8,3.7c0,0-2.8-0.3-5,2l-0.3-1.6c0,0-1,1.9-0.7,2.8C149.6,74.6,147.6,74.9,146.6,75.7"/>
	<path class="st1" d="M146.6,75.7c0,0-1.1-5.7,3.4-7.4c4.5-1.7,4.3-8.8,12.3-4.7l-0.5,1.1c-2.2-1.5-5.7-0.5-7.4,0.7
		c-1.7,1.3-1,2.4-4.9,4.2c-3.9,1.8-2,5.4-2,5.4C147.1,75.3,146.8,75.5,146.6,75.7"/>
	<path class="st2" d="M163.8,68.8c0,0-4.1-2.2-6.6,3c0,0,3.1,9.8,3.6,10.5c0.5,0.7,4.6-0.9,4.3-3.8
		C164.9,75.7,163.8,68.8,163.8,68.8 M156.1,72.8c0,0-4.2-0.3-5,2.7c0,0,0.9,10.5,8.4,7.6C159.5,83.1,156.5,75.4,156.1,72.8z
		 M150.1,76c0,0-3.6-0.3-3.2,2.2c0.4,2.5,4.5,5.5,6,5.7c1.5,0.2-0.2-1.2-0.8-2.1C151.5,80.9,149.8,77.7,150.1,76z M165.2,68.7
		c0.2,0,1.2-2.4,3.8-0.6c0,0,0.6,2.7,0.8,4.2c0.3,1.5,1.5,2,1.5,3.2c0.1,1.2-0.7,2.5-1.4,3c-0.7,0.5-3.2,0.6-3.2,0.6L165.2,68.7z"/>
	<path class="st4" d="M159.1,77.6c1.8-0.6,3.7-1.3,5.6-2.2c-0.4-3-0.9-6.5-0.9-6.5s-4.1-2.2-6.6,3C157.3,71.9,158.2,74.8,159.1,77.6
		 M151.9,79c1.8-0.1,3.7-0.5,5.7-1c-0.7-2-1.4-4.1-1.5-5.3c0,0-4.2-0.3-5,2.7C151.1,75.4,151.2,77.2,151.9,79z M147.1,79
		c1.2,0.1,2.4,0.1,3.7,0.1c-0.4-1.1-0.8-2.3-0.7-3.1c0,0-3.6-0.3-3.2,2.2C146.9,78.5,146.9,78.8,147.1,79z M165.2,68.7
		c0.2,0,1.2-2.4,3.8-0.6c0,0,0.6,2.7,0.8,4.2l0,0.1c-1.3,0.8-2.5,1.6-3.8,2.3L165.2,68.7z"/>
	<path class="st2" d="M166.5,80.8c0.7,0.1,4.1-0.8,4.1-0.8s2.7,3.2,0.1,4.6c-2.6,1.3-7.3,1.7-8.5-0.2c0,0-0.6-1,2.2-1.3
		C164.4,83,165.3,83,166.5,80.8"/>
</g>
</svg>
