<svg xmlns="http://www.w3.org/2000/svg" viewBox="0 0 89.6 91.85"><defs><style>.cls-1{fill:#000001;}.cls-1,.cls-2,.cls-3,.cls-4{fill-rule:evenodd;}.cls-2{fill:#231f20;}.cls-3,.cls-5{fill:#fff;}.cls-4{fill:#d0d2d3;}</style></defs><title>Asset 2</title><g id="Layer_2" data-name="Layer 2"><g id="Layer_1-2" data-name="Layer 1"><path class="cls-1" d="M81.61,13.52a24.81,24.81,0,0,0-10.79-10A42.06,42.06,0,0,0,46,.79c-8.06,1.74-18.58,7.9-21.51,18.13C35,12,47.4,9.41,59.85,9.83a83,83,0,0,1,21.76,3.69"/><path class="cls-2" d="M46,.78h0c-8.06,1.74-18.58,7.9-21.51,18.13A54.35,54.35,0,0,1,44,11.06C43.29,7.47,44.46,3.81,46,.78"/><path class="cls-1" d="M25,36.52c1.34,9.19,3.45,16.53,5.2,18.6,2.56,3,11.51,9.35,31.93,7.84S89.37,49.58,87.18,32V31.9C74.84,24,60.29,23.74,46.5,27.4a85.56,85.56,0,0,0-14.93,5.54,60.62,60.62,0,0,0-5.89,3.16Z"/><path class="cls-2" d="M87.18,32V31.9a41.87,41.87,0,0,0-11.65-5.16l1.69,17.2s9.08,1,10-11.91"/><path class="cls-2" d="M25,36.52c1.34,9.19,3.45,16.53,5.2,18.6,2.38,2.8,10.3,8.48,27.83,8.05-3.74-13.06,3.2-21.77,3.2-21.77L69,25.48A60.08,60.08,0,0,0,46.5,27.4a85.56,85.56,0,0,0-14.93,5.54,60.62,60.62,0,0,0-5.89,3.16Z"/><path class="cls-1" d="M9.53,11a9.9,9.9,0,0,0,7,7.47c6,1.69,6,5.28,6,5.28s-3.71-4.4-11-4.15c0,0,10.84,3.19,10.24,7.75,0,0-2.57.67-3,2.74,0,0-14.66-2.52-16.33-13.83Z"/><path class="cls-2" d="M15.9,21.31c2.94,1.38,6.22,3.51,5.88,6.07,0,0-2.57.67-3,2.74a28.34,28.34,0,0,1-7.55-2.68c5.43-.88,3.14-4.86,4.65-6.13M18,19c4.59,1.81,4.6,4.8,4.6,4.8a12.77,12.77,0,0,0-5.14-3.27A2.14,2.14,0,0,0,18,19Z"/><path class="cls-1" d="M16.24,31.57S10,39.7,0,33L.46,44.58s15.38,4.13,18.43-4l-.63-2.06s-2.84,3.75-8.89,3.25c0,0,6.6-1.63,7.78-4.83A12,12,0,0,1,17.88,32c.92-1.9-1.64-.45-1.64-.45"/><path class="cls-2" d="M16.43,43.71a6.59,6.59,0,0,0,2.46-3.14l-.63-2.06a9.23,9.23,0,0,1-4.67,2.88,4.59,4.59,0,0,1,2.84,2.32m-.19-12.14a11.7,11.7,0,0,1-5.12,3.51,5.15,5.15,0,0,1,.81,5.84c2-.79,4.53-2.12,5.22-4A12,12,0,0,1,17.88,32C18.8,30.12,16.24,31.57,16.24,31.57Z"/><path class="cls-1" d="M21.89,29s-8.1,7.75,3.18,13.41c0,0-2.84-11-3.18-13.41"/><path class="cls-2" d="M21.89,29s-8.1,7.75,3.18,13.41c0,0-.87-3.38-1.71-6.81l-1.08,2.62c-4.82-2-.39-9.22-.39-9.22"/><path class="cls-1" d="M43.9,24.46c12.06-3.24,36.62-6.52,40.44,10C86,41.73,81.13,47.3,74.67,49.81a9,9,0,0,1-4.42.53,17.62,17.62,0,0,1-5.09-1.64c-1.84-.83-4.34-2.17-6.42-1.9a19.09,19.09,0,0,0-4.08,1.33,59.85,59.85,0,0,1-5.74,2.11c-8.17,2.35-13.78-.45-17.37-8.36a7.83,7.83,0,0,1-.61-2c-1.24-7.14,6.38-14.17,13-15.46"/><path class="cls-3" d="M44.29,26.13C53.1,23.75,79,18.88,82.67,34.88c1.36,5.89-2.33,10.89-8.62,13.34-5.65,2.2-10.42-3.8-15.53-3.11C52.6,45.84,40,56.37,33.1,41.18c-2.6-5.72,4-13.69,11.19-15"/><path class="cls-4" d="M44.29,26.13C53.1,23.75,79,18.88,82.67,34.88c1.31,5.65-2,10.48-7.87,13,22.72-22.5-23.59-25-36.94-15.51-6.22,6.5-1.6,13,2.69,16.47-2.78-.88-5.37-3.12-7.45-7.69-2.6-5.72,4-13.69,11.19-15"/><path class="cls-1" d="M40.25,33.79s11,1.09,9.18,8.8S39,44.86,39,44.86l2.85-1.16s-2.42-3.56-1.93-5,3.21,2,4.85.68-4.51-5.62-4.51-5.62"/><path class="cls-1" d="M76.94,34.12a5.1,5.1,0,0,0-5.36.87A7.3,7.3,0,0,1,73,38c0,1.22.31,2.16-1.28,1.47s-3.57,4.13,1.19,5,5.91-5,4.06-6.73a21.57,21.57,0,0,0-3.19-2.61,7.31,7.31,0,0,1,3.21-1"/><path class="cls-1" d="M86.67,16.33c2.17,4.61,3.41,9.18,2.75,14.32l-.24,1.9-1.61-1c-12.48-8.07-27.23-8.36-41.21-4.64a85.9,85.9,0,0,0-15,5.58,61.84,61.84,0,0,0-5.95,3.19l-1.6,1-.24-1.87q-.75-5.81-1-11.66V23c0-.37.06-.74.1-1.1l.05-.39,1.74-1.88.12-.08C35,12.55,47.41,10,59.83,10.37c8.45.29,18.37,2.07,26.22,5.37l.42.17Z"/><path class="cls-1" d="M23.75,23.06c.16,4,.51,7.88,1,11.55,0,0,35.44-22.25,63.48-4.12.7-5.44-.93-10-2.64-13.64-10.24-4.3-38.42-11-60.35,3.69L23.85,22c0,.35-.07.69-.1,1"/><path class="cls-2" d="M23.75,23.06c.16,4,.51,7.88,1,11.55a75.88,75.88,0,0,1,9.64-4.85,27.91,27.91,0,0,1,1.68-14.69,50.79,50.79,0,0,0-10.83,5.47L23.85,22c0,.35-.07.69-.1,1"/><path class="cls-2" d="M84.29,28.23a42.23,42.23,0,0,1,3.93,2.26c.7-5.44-.93-10-2.64-13.64a59.06,59.06,0,0,0-6.79-2.32,37.08,37.08,0,0,1,5.5,13.7"/><path class="cls-1" d="M58.17,80.08c.76,1.81.65,3.85-1.52,5-2.4,1.23-7.11,2-9.57.21l-14.3,6.57a2.7,2.7,0,0,1-2.91-1.5l-.37-.81-4,1.88-2.87-6.16,4-1.88-.42-.9a2.69,2.69,0,0,1,.72-3.19l3.67-1.81a3.7,3.7,0,0,1,0-1l-.25-1.23a10.67,10.67,0,0,1,0-3.61,6.72,6.72,0,0,1,4.34-5.45,6.26,6.26,0,0,0,2.47-2,14.57,14.57,0,0,1,2.93-3c2.34-1.55,5-1,7.32.08a4.81,4.81,0,0,1,1.8-.41c2.28,0,3.91,1.64,5,3.5l1,1.75,6.61-3a2.7,2.7,0,0,1,2.78,1.53l.42.9,4-1.88,2.87,6.16-4,1.88.38.8a2.71,2.71,0,0,1-.62,3.11Z"/><path class="cls-1" d="M28.14,80.24,61.66,64.62a1.18,1.18,0,0,1,1.57.57l3.67,7.87a1.19,1.19,0,0,1-.57,1.57L32.8,90.25a1.19,1.19,0,0,1-1.57-.58l-3.67-7.86a1.19,1.19,0,0,1,.58-1.57"/><rect class="cls-5" x="31.1" y="78.89" width="2.29" height="11.04" transform="translate(-32.63 21.51) rotate(-24.98)"/><rect class="cls-5" x="25.2" y="84.94" width="3.9" height="3.8" transform="translate(-34.13 19.59) rotate(-24.98)"/><rect class="cls-5" x="65.4" y="66.21" width="3.9" height="3.8" transform="translate(-22.46 34.81) rotate(-24.98)"/><rect class="cls-5" x="33.86" y="77.87" width="1.14" height="11.04" transform="translate(-32 22.35) rotate(-24.98)"/><rect class="cls-5" x="61.19" y="64.87" width="2.29" height="11.04" transform="translate(-23.9 32.9) rotate(-24.98)"/><rect class="cls-5" x="59.58" y="65.89" width="1.14" height="11.04" transform="translate(-24.53 32.08) rotate(-24.98)"/><path class="cls-1" d="M31.86,74.9s-1.14-5.66,3.38-7.36,4.28-8.75,12.25-4.71c0,0,2.9-2.3,5.42,2.14,0,0-2.68.37-3.18,1.83,0,0-5.26-2.56-8.82,3.7a6.41,6.41,0,0,0-5,2L35.57,71s-1,1.86-.69,2.84a7.21,7.21,0,0,0-3,1.09"/><path class="cls-2" d="M31.86,74.9s-1.14-5.66,3.38-7.36,4.28-8.75,12.25-4.71L47,64c-2.2-1.47-5.74-.53-7.39.73s-1,2.41-4.87,4.23a3.9,3.9,0,0,0-2,5.45,4,4,0,0,0-.88.51"/><path class="cls-3" d="M49.13,68s-4.1-2.19-6.57,3c0,0,3.08,9.79,3.61,10.5s4.6-.94,4.28-3.79S49.13,68,49.13,68M41.41,72s-4.19-.3-5,2.67c0,0,.91,10.45,8.42,7.64C44.78,82.27,41.75,74.64,41.41,72Zm-6.07,3.25s-3.61-.29-3.23,2.23,4.48,5.54,6,5.7S38,82,37.38,81,35.11,76.9,35.34,75.21ZM50.5,67.94c.25,0,1.19-2.42,3.79-.59,0,0,.58,2.7.83,4.21s1.46,2,1.52,3.23a3.93,3.93,0,0,1-1.4,3c-.71.52-3.24.65-3.24.65Z"/><path class="cls-4" d="M44.43,76.82a38.41,38.41,0,0,0,5.62-2.24c-.41-3-.92-6.54-.92-6.54s-4.1-2.19-6.57,3c0,0,.94,3,1.87,5.76M37.2,78.23a32.2,32.2,0,0,0,5.72-1A33.3,33.3,0,0,1,41.41,72s-4.19-.3-5,2.67A15.53,15.53,0,0,0,37.2,78.23Zm-4.86,0A29.53,29.53,0,0,0,36,78.3a6.84,6.84,0,0,1-.67-3.09s-3.61-.29-3.23,2.23A3.59,3.59,0,0,0,32.34,78.24ZM50.5,67.94c.25,0,1.19-2.42,3.79-.59,0,0,.58,2.7.83,4.21l0,.1q-1.92,1.26-3.79,2.25Z"/><path class="cls-3" d="M51.74,80a25,25,0,0,0,4.11-.84s2.74,3.22.12,4.56-7.27,1.7-8.54-.22c0,0-.64-1,2.25-1.3,0,0,.9,0,2.06-2.2"/></g></g></svg>